<?xml version="1.0" encoding="utf-8"?>
<!-- Generator: Adobe Illustrator 25.4.1, SVG Export Plug-In . SVG Version: 6.00 Build 0)  -->
<svg version="1.1" id="DISEÑO" xmlns="http://www.w3.org/2000/svg" xmlns:xlink="http://www.w3.org/1999/xlink" x="0px" y="0px"
	 viewBox="0 0 709.8 145.5" style="enable-background:new 0 0 709.8 145.5;" xml:space="preserve">
<style type="text/css">
	.st0{fill:#FFFFFF;}
	.st1{fill-rule:evenodd;clip-rule:evenodd;fill:#FFFFFF;}
</style>
<g>
	<g>
		<path class="st0" d="M13.8,145.5H0v-42.1c0-17,13.8-30.8,30.8-30.8c9.7,0,18.2,4.4,23.9,11.5c5.7-7.1,14.3-11.5,24-11.5
			c17,0,30.6,13.8,30.6,30.8v42.1H95.6v-42.1c0-9.4-7.6-17.2-17-17.2c-9.6,0-17.2,7.8-17.2,17.2v42.1H47.9v-42.1
			c0-9.4-7.8-17.2-17.1-17.2s-17,7.8-17,17.2C13.8,103.4,13.8,145.5,13.8,145.5z"/>
		<path class="st0" d="M242.4,109.1c0-20,16.3-36.4,36.4-36.4s36.4,16.4,36.4,36.4c0,2.5-0.4,4.8-0.7,6.9H257
			c2.8,9.2,11.5,15.9,21.7,15.9c6.4,0,12-2.6,16.3-6.7h16.4c-5.8,12-18.4,20.3-32.7,20.3C258.6,145.5,242.4,129.2,242.4,109.1z
			 M257,102.4h43.5c-3-9.2-11.7-15.9-21.7-15.9C268.5,86.4,259.9,93.2,257,102.4z"/>
		<path class="st0" d="M339.4,145.5h-13.6v-36.4c0-20.2,16.3-36.4,36.4-36.4s36.4,16.3,36.4,36.4v36.4H385v-36.4
			c0-12.6-10.3-22.8-22.8-22.8s-22.8,10.3-22.8,22.8L339.4,145.5L339.4,145.5z"/>
		<path class="st0" d="M422.9,145.5h-13.6v-36.4c0-20.2,16.3-36.4,36.4-36.4s36.4,16.3,36.4,36.4v36.4h-13.6v-36.4
			c0-12.6-10.3-22.8-22.8-22.8s-22.8,10.3-22.8,22.8V145.5L422.9,145.5z"/>
		<path class="st0" d="M506.5,58.9h-13.8V45.3h13.8V58.9z M492.7,72.7h13.8v72.8h-13.8V72.7z"/>
		<path class="st0" d="M576.3,72.7h13.6v36.4c0,20.1-16.3,36.4-36.4,36.4c-20.2,0-36.4-16.3-36.4-36.4V72.7h13.6v36.4
			c0,12.6,10.3,22.8,22.8,22.8s22.8-10.3,22.8-22.8L576.3,72.7L576.3,72.7z"/>
		<path class="st0" d="M614.3,145.5h-13.8v-42.1c0-17,13.8-30.8,30.8-30.8c9.7,0,18.2,4.4,23.9,11.5c5.7-7.1,14.3-11.5,24-11.5
			c17,0,30.6,13.8,30.6,30.8v42.1h-13.6v-42.1c0-9.4-7.6-17.2-17-17.2c-9.5,0-17.2,7.8-17.2,17.2v42.1h-13.6v-42.1
			c0-9.4-7.8-17.2-17.2-17.2s-17,7.8-17,17.2L614.3,145.5L614.3,145.5z"/>
	</g>
	<g>
		<g>
			<path class="st1" d="M258.1,29.6c-14.7-0.5-27.9,1.1-39.3,4.5c-19.7,5.4-42,16-61.7,31.3c10.4-5,19.9-9.1,28.7-12.3
				c-22.2,22-26,56.7-7,91.8C173,91.9,195.8,51.4,258.1,29.6z"/>
			<path class="st1" d="M206.1,34.5c5.9,0,10.6-4.7,10.6-10.6s-4.7-10.6-10.6-10.6c-5.9,0-10.6,4.7-10.6,10.6S200.3,34.5,206.1,34.5
				z"/>
			<path class="st1" d="M221.1,144.9c0.6-60.8,35.2-103.1,108.6-119.1C250.3,10.3,204.7,68.2,221.1,144.9z"/>
			<path class="st1" d="M274.3,24.1c6.6,0.8,12.6-3.9,13.5-10.5C288.6,7,283.9,1,277.3,0.1c-6.6-0.8-12.7,3.9-13.5,10.5
				C262.9,17.2,267.6,23.3,274.3,24.1z"/>
			<path class="st1" d="M169.8,64.6c-8.3,3.4-15.2,7.1-20.8,11c-11.2,7.2-22.4,16.2-32.4,26.7c6.4-4.3,12.4-8.2,18.1-11.6
				c-7.4,14-3.2,31.3,12.7,54.2C140.2,112.1,140.3,89.8,169.8,64.6z"/>
			<path class="st1" d="M144,75.6c3.2-1.1,5-4.5,3.9-7.8s-4.5-5-7.8-4c-3.2,1-5,4.5-3.9,7.8S140.8,76.7,144,75.6z"/>
		</g>
	</g>
</g>
</svg>
